<svg xmlns="http://www.w3.org/2000/svg" viewBox="0 0 1024 1024" role="img" aria-label="Muhaffez app icon: open book">
  <defs>
    <!-- Gradient background -->
    <linearGradient id="bg" x1="0" y1="0" x2="1" y2="1">
      <stop offset="0" stop-color="#22D3EE"/>
      <stop offset="1" stop-color="#6366F1"/>
    </linearGradient>
    <!-- Soft shadow -->
    <filter id="softShadow" x="-20%" y="-20%" width="140%" height="140%">
      <feDropShadow dx="0" dy="12" stdDeviation="24" flood-opacity="0.25"/>
    </filter>
  </defs>

  <!-- Rounded background tile -->
  <rect x="0" y="0" width="1024" height="1024" rx="220" fill="url(#bg)"/>

  <!-- Open book (centered) -->
  <g transform="translate(160,216) scale(5)">
    <path d="M0 107.927C0 112.31 2.88867 114.053 6.07617 114.053C8.01855 114.053 9.6123 113.057 11.6543 111.712C18.627 106.383 27.9404 103.146 37.752 103.195C47.5137 103.245 57.2256 106.98 64.4971 114.202C66.8379 116.394 68.6309 117.091 70.623 117.091C72.6152 117.091 74.458 116.394 76.6992 114.202C84.0703 107.03 93.6826 103.245 103.444 103.195C113.256 103.146 122.619 106.383 129.542 111.712C131.584 113.057 133.228 114.053 135.12 114.053C138.308 114.053 141.196 112.31 141.196 107.927L141.196 20.8184C141.196 19.6729 141.097 18.876 140.449 17.7803C134.672 8.01855 120.328 0 103.245 0C89.001 0 77.0479 5.77734 70.623 13.9951C64.1484 5.77734 52.1953 0 37.9512 0C20.8682 0 6.52441 8.01855 0.74707 17.7803C0.0996094 18.876 0 19.6729 0 20.8184ZM8.81543 102.996L8.81543 21.9141C14.0947 14.0449 25.749 8.81543 37.9512 8.81543C50.5518 8.81543 61.3096 14.0947 66.1904 22.4619L66.1904 104.191C59.8154 98.8623 49.3066 94.3799 37.9512 94.3799C26.0977 94.3799 15.4893 97.8164 8.81543 102.996ZM75.0059 104.191L75.0059 22.4619C79.8867 14.0947 90.6943 8.81543 103.245 8.81543C115.447 8.81543 127.102 14.0449 132.381 21.9141L132.381 102.996C125.757 97.8164 115.099 94.3799 103.245 94.3799C91.8896 94.3799 81.3809 98.8623 75.0059 104.191Z"
          fill="#FFFFFF" opacity="0.16"/>
    <path d="M0 107.927C0 112.31 2.88867 114.053 6.07617 114.053C8.01855 114.053 9.6123 113.057 11.6543 111.712C18.627 106.383 27.9404 103.146 37.752 103.195C47.5137 103.245 57.2256 106.98 64.4971 114.202C66.8379 116.394 68.6309 117.091 70.623 117.091C72.6152 117.091 74.458 116.394 76.6992 114.202C84.0703 107.03 93.6826 103.245 103.444 103.195C113.256 103.146 122.619 106.383 129.542 111.712C131.584 113.057 133.228 114.053 135.12 114.053C138.308 114.053 141.196 112.31 141.196 107.927L141.196 20.8184C141.196 19.6729 141.097 18.876 140.449 17.7803C134.672 8.01855 120.328 0 103.245 0C89.001 0 77.0479 5.77734 70.623 13.9951C64.1484 5.77734 52.1953 0 37.9512 0C20.8682 0 6.52441 8.01855 0.74707 17.7803C0.0996094 18.876 0 19.6729 0 20.8184ZM8.81543 102.996L8.81543 21.9141C14.0947 14.0449 25.749 8.81543 37.9512 8.81543C50.5518 8.81543 61.3096 14.0947 66.1904 22.4619L66.1904 104.191C59.8154 98.8623 49.3066 94.3799 37.9512 94.3799C26.0977 94.3799 15.4893 97.8164 8.81543 102.996ZM75.0059 104.191L75.0059 22.4619C79.8867 14.0947 90.6943 8.81543 103.245 8.81543C115.447 8.81543 127.102 14.0449 132.381 21.9141L132.381 102.996C125.757 97.8164 115.099 94.3799 103.245 94.3799C91.8896 94.3799 81.3809 98.8623 75.0059 104.191Z"
          fill="none" stroke="#FFFFFF" stroke-width="6" filter="url(#softShadow)"/>
  </g>
</svg>
